<svg xmlns="http://www.w3.org/2000/svg" width="20.101" height="22.972" viewBox="0 0 20.101 22.972">
  <g id="drupal_logo" transform="translate(-31.995)">
    <path id="Logo_1" d="M166.526,317.024a3.626,3.626,0,1,0,3.579,3.625A3.6,3.6,0,0,0,166.526,317.024Z" transform="translate(-125.076 -302.8)"/>
    <path id="Logo_2" d="M325.546,176.16a4.71,4.71,0,0,1,.115,1.032,4.778,4.778,0,0,1-3.416,4.593,6.3,6.3,0,0,1-.93,9.443,10.4,10.4,0,0,0,6.492-5.894C329.322,181.566,327.909,178.731,325.546,176.16Z" transform="translate(-276.339 -168.256)"/>
    <path id="Logo_3" d="M254.555,137.5a2.773,2.773,0,1,0,2.737,2.772A2.761,2.761,0,0,0,254.555,137.5Z" transform="translate(-209.953 -131.335)"/>
    <path id="Logo_4" d="M40.935,0c.617,6.547-5.888,4.168-8.3,10.207a9.606,9.606,0,0,0,4.1,11.665,6.273,6.273,0,0,1-1.447-4.023,6.209,6.209,0,0,1,5.433-6.2,4.83,4.83,0,0,1-.834-2.711A4.727,4.727,0,0,1,45.235,4.21,36.451,36.451,0,0,1,40.935,0Z"/>
  </g>
</svg>
